# xmcd
#
# Track frame offsets: 
#        150
#        19368
#        34197
#        52319
#        68485
#        84869
#        102273
#        118260
#        136598
#        147798
#
# Disc length: 2266 seconds
#
# Revision: 1
# Processed by: cddbd v1.5.2PL0 Copyright (c) Steve Scherf et al.
# Submitted via: ExactAudioCopy v1.0b3
#
DISCID=8508d80a
DTITLE=Johnny Rawls - Lucky Man
DYEAR=2002
DGENRE=Blues
TTITLE0=You Got To Change
TTITLE1=I Need Some Love
TTITLE2=Lucky Man
TTITLE3=Give It To Me
TTITLE4=Got To Be Careful
TTITLE5=Real Love
TTITLE6=Still Together
TTITLE7=Picture In A Frame
TTITLE8=Call Me
TTITLE9=Going Home
EXTD=YEAR: 2002 ID3G: 0
EXTT0=
EXTT1=
EXTT2=
EXTT3=
EXTT4=
EXTT5=
EXTT6=
EXTT7=
EXTT8=
EXTT9=
PLAYORDER=
